<svg width="90" height="68" viewBox="0 0 90 68" fill="none" xmlns="http://www.w3.org/2000/svg">
<path fill-rule="evenodd" clip-rule="evenodd" d="M0 11.3333C0 8.32755 1.18526 5.44487 3.29505 3.31946C5.40483 1.19404 8.26631 0 11.25 0H78.75C81.7337 0 84.5952 1.19404 86.7049 3.31946C88.8147 5.44487 90 8.32755 90 11.3333V56.6667C90 59.6725 88.8147 62.5551 86.7049 64.6805C84.5952 66.806 81.7337 68 78.75 68H11.25C8.26631 68 5.40483 66.806 3.29505 64.6805C1.18526 62.5551 0 59.6725 0 56.6667V11.3333ZM14.0625 17C13.3166 17 12.6012 17.2985 12.0738 17.8299C11.5463 18.3612 11.25 19.0819 11.25 19.8333V25.5C11.25 26.2514 11.5463 26.9721 12.0738 27.5035C12.6012 28.0348 13.3166 28.3333 14.0625 28.3333H25.3125C26.0584 28.3333 26.7738 28.0348 27.3012 27.5035C27.8287 26.9721 28.125 26.2514 28.125 25.5V19.8333C28.125 19.0819 27.8287 18.3612 27.3012 17.8299C26.7738 17.2985 26.0584 17 25.3125 17H14.0625ZM14.0625 34C13.3166 34 12.6012 34.2985 12.0738 34.8299C11.5463 35.3612 11.25 36.0819 11.25 36.8333C11.25 37.5848 11.5463 38.3055 12.0738 38.8368C12.6012 39.3682 13.3166 39.6667 14.0625 39.6667H42.1875C42.9334 39.6667 43.6488 39.3682 44.1762 38.8368C44.7037 38.3055 45 37.5848 45 36.8333C45 36.0819 44.7037 35.3612 44.1762 34.8299C43.6488 34.2985 42.9334 34 42.1875 34H14.0625ZM14.0625 45.3333C13.3166 45.3333 12.6012 45.6318 12.0738 46.1632C11.5463 46.6945 11.25 47.4152 11.25 48.1667C11.25 48.9181 11.5463 49.6388 12.0738 50.1701C12.6012 50.7015 13.3166 51 14.0625 51H19.6875C20.4334 51 21.1488 50.7015 21.6762 50.1701C22.2037 49.6388 22.5 48.9181 22.5 48.1667C22.5 47.4152 22.2037 46.6945 21.6762 46.1632C21.1488 45.6318 20.4334 45.3333 19.6875 45.3333H14.0625ZM30.9375 45.3333C30.1916 45.3333 29.4762 45.6318 28.9488 46.1632C28.4213 46.6945 28.125 47.4152 28.125 48.1667C28.125 48.9181 28.4213 49.6388 28.9488 50.1701C29.4762 50.7015 30.1916 51 30.9375 51H36.5625C37.3084 51 38.0238 50.7015 38.5512 50.1701C39.0787 49.6388 39.375 48.9181 39.375 48.1667C39.375 47.4152 39.0787 46.6945 38.5512 46.1632C38.0238 45.6318 37.3084 45.3333 36.5625 45.3333H30.9375ZM47.8125 45.3333C47.0666 45.3333 46.3512 45.6318 45.8238 46.1632C45.2963 46.6945 45 47.4152 45 48.1667C45 48.9181 45.2963 49.6388 45.8238 50.1701C46.3512 50.7015 47.0666 51 47.8125 51H53.4375C54.1834 51 54.8988 50.7015 55.4262 50.1701C55.9537 49.6388 56.25 48.9181 56.25 48.1667C56.25 47.4152 55.9537 46.6945 55.4262 46.1632C54.8988 45.6318 54.1834 45.3333 53.4375 45.3333H47.8125ZM64.6875 45.3333C63.9416 45.3333 63.2262 45.6318 62.6988 46.1632C62.1713 46.6945 61.875 47.4152 61.875 48.1667C61.875 48.9181 62.1713 49.6388 62.6988 50.1701C63.2262 50.7015 63.9416 51 64.6875 51H70.3125C71.0584 51 71.7738 50.7015 72.3012 50.1701C72.8287 49.6388 73.125 48.9181 73.125 48.1667C73.125 47.4152 72.8287 46.6945 72.3012 46.1632C71.7738 45.6318 71.0584 45.3333 70.3125 45.3333H64.6875Z" fill="#00A39D"/>
</svg>
